<?xml version="1.0" standalone="no"?>
<!DOCTYPE svg PUBLIC "-//W3C//DTD SVG 20010904//EN"
 "http://www.w3.org/TR/2001/REC-SVG-20010904/DTD/svg10.dtd">
<svg version="1.0" xmlns="http://www.w3.org/2000/svg"
 width="1154.000000pt" height="1280.000000pt" viewBox="0 0 1154.000000 1280.000000"
 preserveAspectRatio="xMidYMid meet">
<metadata>
Created by potrace 1.15, written by Peter Selinger 2001-2017
</metadata>
<g transform="translate(0.000000,1280.000000) scale(0.100000,-0.100000)"
fill="#c0c0c0" stroke="none">
<path d="M3995 12791 c-144 -23 -277 -85 -358 -166 -50 -50 -107 -146 -107
-180 0 -23 -32 -31 -145 -39 -415 -28 -1032 -122 -1490 -227 -495 -114 -859
-237 -1210 -409 -201 -99 -325 -175 -464 -288 -100 -82 -221 -214 -221 -242 0
-16 19 -18 188 -24 940 -33 1888 -108 2787 -221 267 -33 406 -53 412 -59 2 -2
0 -93 -6 -203 -55 -1023 -29 -2057 75 -2978 84 -748 226 -1475 415 -2135 57
-197 194 -620 245 -753 19 -49 34 -94 34 -100 0 -7 -39 -37 -88 -68 -48 -31
-240 -155 -427 -276 -584 -377 -1213 -769 -1810 -1128 -265 -160 -316 -197
-442 -328 -244 -252 -352 -544 -299 -806 29 -142 107 -282 222 -396 259 -260
726 -259 1157 2 34 20 177 129 317 243 531 428 1126 892 1620 1266 146 110
270 203 276 207 7 4 75 -122 187 -346 525 -1051 1071 -1878 1736 -2627 274
-309 525 -459 838 -501 100 -13 255 -7 359 15 222 47 484 168 600 278 179 169
159 506 -49 786 -21 30 -93 116 -160 191 -914 1036 -1596 1969 -2149 2936
l-108 190 22 19 c26 21 677 485 958 682 587 413 1254 870 1935 1326 451 303
491 327 503 311 21 -28 193 -382 260 -533 33 -74 121 -290 198 -480 150 -376
163 -398 245 -420 62 -17 262 -6 369 20 377 92 873 327 1048 496 77 75 88 143
53 321 -60 303 -307 836 -645 1391 -48 78 -89 149 -92 156 -4 10 38 42 128
101 73 48 135 89 137 91 7 7 -20 125 -50 217 -87 268 -309 603 -522 788 -85
74 -233 179 -253 179 -6 0 -68 -43 -138 -96 -71 -53 -131 -92 -135 -87 -5 4
-34 42 -66 83 -375 480 -807 931 -1079 1124 -97 70 -223 132 -284 141 -43 6
-60 3 -106 -18 -206 -95 -573 -442 -794 -754 -153 -216 -217 -388 -181 -491 7
-21 93 -104 277 -268 253 -226 761 -722 830 -810 l31 -41 -327 -240 c-1122
-823 -2862 -2047 -2882 -2027 -11 12 -105 253 -180 464 -347 977 -520 1875
-592 3080 -14 236 -17 1356 -4 1521 l8 96 91 -18 c371 -72 487 -96 677 -135
118 -25 323 -70 454 -100 208 -48 243 -54 264 -43 36 20 151 146 208 229 219
319 366 809 325 1084 -33 220 -158 342 -471 459 -295 110 -791 193 -1275 212
-181 8 -205 12 -205 33 0 35 -49 120 -97 168 -97 97 -244 152 -423 159 -58 2
-128 0 -155 -4z"/>
</g>
</svg>
