<?xml version="1.0" standalone="no"?>
<!DOCTYPE svg PUBLIC "-//W3C//DTD SVG 20010904//EN"
 "http://www.w3.org/TR/2001/REC-SVG-20010904/DTD/svg10.dtd">
<svg version="1.0" xmlns="http://www.w3.org/2000/svg"
 width="1081.000000pt" height="1280.000000pt" viewBox="0 0 1081.000000 1280.000000"
 preserveAspectRatio="xMidYMid meet">
<metadata>
Created by potrace 1.15, written by Peter Selinger 2001-2017
</metadata>
<g transform="translate(0.000000,1280.000000) scale(0.100000,-0.100000)"
fill="#c0c0c0" stroke="none">
<path d="M1974 12791 c-32 -14 -64 -60 -64 -92 l0 -29 -104 0 -103 0 8 -50 c4
-28 20 -73 36 -102 27 -50 103 -120 143 -133 20 -6 20 -17 20 -1561 l0 -1554
-542 0 c-584 0 -604 -2 -684 -53 -58 -36 -120 -110 -146 -176 -23 -56 -23 -56
-26 -686 l-2 -630 -255 -3 -255 -2 0 -3860 0 -3860 5405 0 5405 0 0 3860 0
3860 -255 2 -255 3 -2 630 c-3 630 -3 630 -26 686 -26 66 -88 140 -146 176
-88 56 175 53 -4068 53 l-3928 0 0 1553 0 1553 52 34 c85 56 119 111 143 228
l7 32 -101 0 -100 0 -11 38 c-5 21 -20 48 -33 61 -27 25 -81 35 -113 22z m-66
-4453 l-3 -613 -482 -3 -483 -2 0 615 0 615 485 0 485 0 -2 -612z m7962 -3 l0
-615 -3870 2 -3870 3 -3 613 -2 612 3873 0 3872 0 0 -615z"/>
</g>
</svg>
